<?xml version="1.0" encoding="UTF-8" standalone="no"?>
<svg width="26px" height="26px" viewBox="0 0 26 26" version="1.1" xmlns="http://www.w3.org/2000/svg" xmlns:xlink="http://www.w3.org/1999/xlink" xmlns:sketch="http://www.bohemiancoding.com/sketch/ns">
    <!-- Generator: Sketch 3.2 (9961) - http://www.bohemiancoding.com/sketch -->
    <title>icon_pause</title>
    <desc>Created with Sketch.</desc>
    <defs></defs>
    <g id="Page-1" stroke="none" stroke-width="1" fill="none" fill-rule="evenodd" sketch:type="MSPage">
        <g id="icon_pause" sketch:type="MSLayerGroup" transform="translate(-1.000000, -1.000000)">
            <path d="M0,0 L28,0 L28,28 L0,28 L0,0 Z" id="Shape" sketch:type="MSShapeGroup"></path>
            <path d="M14,2.33333333 C7.56,2.33333333 2.33333333,7.56 2.33333333,14 C2.33333333,20.44 7.56,25.6666667 14,25.6666667 C20.44,25.6666667 25.6666667,20.44 25.6666667,14 C25.6666667,7.56 20.44,2.33333333 14,2.33333333 L14,2.33333333 Z M12.8333333,18.6666667 L10.5,18.6666667 L10.5,9.33333333 L12.8333333,9.33333333 L12.8333333,18.6666667 L12.8333333,18.6666667 Z M17.5,18.6666667 L15.1666667,18.6666667 L15.1666667,9.33333333 L17.5,9.33333333 L17.5,18.6666667 L17.5,18.6666667 Z" id="Shape" stroke="#000000" fill="#FFFFFF" sketch:type="MSShapeGroup"></path>
        </g>
    </g>
</svg>